<?xml version="1.0" encoding="utf-8"?>
<!-- Generator: Adobe Illustrator 25.2.1, SVG Export Plug-In . SVG Version: 6.00 Build 0)  -->
<svg version="1.1" id="Layer_1" xmlns="http://www.w3.org/2000/svg" xmlns:xlink="http://www.w3.org/1999/xlink" x="0px" y="0px"
	 viewBox="0 0 432 64.9" style="enable-background:new 0 0 432 64.9;" xml:space="preserve">
<style type="text/css">
	.st0{fill:#215299;}
</style>
<path class="st0" d="M18.4,12H0L0,0l50.2,0v12H31.8v52.9H18.4V12z M53,0l45.8,0v12H66.4v13.9h29.7V37H66.4v15.9h33v12H53V0z
	 M104.5,0l33,0c11,0,17.9,8.1,17.9,17.9c0,7.6-2.9,13.4-9.7,16.3v0.2c6.6,1.8,8.5,8.6,8.9,15.2c0.3,4.1,0.2,11.7,2.6,15.4h-13.5
	c-1.6-4.1-1.4-10.4-2.1-15.6c-0.9-6.8-3.4-9.8-10.2-9.8H118v25.4h-13.5V0z M118,29.4h14.8c6,0,9.3-2.7,9.3-9.3c0-6.3-3.3-9-9.3-9
	H118V29.4z M181.8,0l13.8,0l22.9,64.9h-14l-4.6-14.5H177l-4.8,14.5h-13.6L181.8,0z M180.5,39.8h15.9L188.7,16h-0.2L180.5,39.8z
	 M219.5,0L246,0c15.9,0,27.8,10.5,27.8,32.1c0,18.8-9.1,32.8-27.8,32.8h-26.4V0z M233,52.9h12c7.8,0,15.3-5.1,15.3-19.5
	c0-13.1-4.3-21.5-17.7-21.5H233V52.9z M289.8,39.6L267.3,0l15.2,0l14.3,25.6L311,0l15,0l-22.7,40v24.9h-13.5V39.6z M328,0l13.4,0
	l25.6,43.5h0.2V0l12.6,0v64.9h-13.5l-25.5-43.5h-0.2v43.5H328V0z M385.5,0l45.8,0v12H399v13.9h29.7V37H399v15.9h33v12h-46.5V0z"/>
</svg>
